<svg width="15" height="15" viewBox="0 0 15 15" fill="none" xmlns="http://www.w3.org/2000/svg">
<path d="M6.75 11.25H8.25V8.25H11.25V6.75H8.25V3.75H6.75V6.75H3.75V8.25H6.75V11.25ZM7.5 15C6.4625 15 5.4875 14.803 4.575 14.409C3.6625 14.015 2.86875 13.4808 2.19375 12.8063C1.51875 12.1313 0.9845 11.3375 0.591 10.425C0.1975 9.5125 0.0005 8.5375 0 7.5C0 6.4625 0.197 5.4875 0.591 4.575C0.985 3.6625 1.51925 2.86875 2.19375 2.19375C2.86875 1.51875 3.6625 0.9845 4.575 0.591C5.4875 0.1975 6.4625 0.0005 7.5 0C8.5375 0 9.5125 0.197 10.425 0.591C11.3375 0.985 12.1313 1.51925 12.8063 2.19375C13.4813 2.86875 14.0157 3.6625 14.4097 4.575C14.8037 5.4875 15.0005 6.4625 15 7.5C15 8.5375 14.803 9.5125 14.409 10.425C14.015 11.3375 13.4808 12.1313 12.8063 12.8063C12.1313 13.4813 11.3375 14.0157 10.425 14.4097C9.5125 14.8037 8.5375 15.0005 7.5 15Z" fill="#5B6CFF"/>
</svg>
