<svg width="14" height="15" viewBox="0 0 14 15" fill="none" xmlns="http://www.w3.org/2000/svg">
<path d="M4.5 11.25L6.66667 9.08333L8.83333 11.25L10 10.0833L7.83333 7.91667L10 5.75L8.83333 4.58333L6.66667 6.75L4.5 4.58333L3.33333 5.75L5.5 7.91667L3.33333 10.0833L4.5 11.25ZM2.5 15C2.04167 15 1.64917 14.8367 1.3225 14.51C0.995833 14.1833 0.832778 13.7911 0.833333 13.3333V2.5H0V0.833333H4.16667V0H9.16667V0.833333H13.3333V2.5H12.5V13.3333C12.5 13.7917 12.3367 14.1842 12.01 14.5108C11.6833 14.8375 11.2911 15.0006 10.8333 15H2.5Z" fill="#D9D9D9" fill-opacity="0.1"/>
</svg>
